<svg id="レイヤー_1" data-name="レイヤー 1" xmlns="http://www.w3.org/2000/svg" viewBox="0 0 291.28 76.22"><defs><style>.cls-1{fill:#fdd000;}.cls-2{fill:#898a8d;}</style></defs><path class="cls-1" d="M227.17,408.2c-1.65-5.72.46-15.67,3.33-21.36l-1.23-1.24L218.8,396.08a2.76,2.76,0,1,1-1.07-1.07l10.47-10.47L227,383.31c-5.69,2.86-15.64,5-21.35,3.33L192.56,401.7l18.06,20.84Z" transform="translate(-152.3 -383.17)"/><path class="cls-1" d="M156.72,443.05a8.76,8.76,0,0,0-2,7,10.69,10.69,0,0,0,9.08,9.08,8.77,8.77,0,0,0,7-2.05l19.3-16.72L172.35,425Z" transform="translate(-152.3 -383.17)"/><path class="cls-1" d="M177.18,386.64c-5.72,1.65-15.66-.47-21.35-3.33l-1.24,1.23L165.06,395a2.78,2.78,0,0,1,3.3.46,2.76,2.76,0,1,1-4.36.61l-10.47-10.47-1.23,1.23c2.86,5.69,5,15.64,3.33,21.35L212,457.08a8.75,8.75,0,0,0,7,2.05,10.7,10.7,0,0,0,9.09-9.09,8.75,8.75,0,0,0-2.05-7Z" transform="translate(-152.3 -383.17)"/><path class="cls-2" d="M400.54,383.17h-2.65a11.88,11.88,0,0,0-9.49,4.38,16.86,16.86,0,0,0-3.69,11.25V421a16.8,16.8,0,0,0,3.72,11.22,11.85,11.85,0,0,0,9.46,4.4h45.69v-9H401.52c-1.69,0-4-.59-5-1.77A7.17,7.17,0,0,1,395,421V398.81c0-4.39,2.84-6.6,6.54-6.6h42.06v-9h-43Z" transform="translate(-152.3 -383.17)"/><path class="cls-2" d="M298.44,405.43H267.59a4.94,4.94,0,0,1-3.93-1.95,7.51,7.51,0,0,1,0-9.32,4.94,4.94,0,0,1,3.93-2h42.07v-9H264.94a11.79,11.79,0,0,0-9.3,4.6,17.69,17.69,0,0,0,0,22.11,11.78,11.78,0,0,0,9.3,4.59H295.8a4.94,4.94,0,0,1,3.93,1.94,7.43,7.43,0,0,1,0,9.26,5,5,0,0,1-3.93,1.94H253.72v9h44.72a11.79,11.79,0,0,0,9.31-4.57,17.71,17.71,0,0,0,0-22.1,11.82,11.82,0,0,0-9.31-4.54" transform="translate(-152.3 -383.17)"/><polygon class="cls-2" points="113.66 65.81 111.28 65.81 104.52 70.19 104.52 65.81 102.91 65.81 102.91 76.22 104.52 76.22 104.52 71.85 111.31 76.22 113.69 76.22 105.6 71.02 113.66 65.81"/><path class="cls-2" d="M299.82,449H293a2.16,2.16,0,0,0-1.72.85,3.16,3.16,0,0,0-.73,2.1v4.52a3.21,3.21,0,0,0,.7,2.14,2.16,2.16,0,0,0,1.75.8h6.81a2.17,2.17,0,0,0,1.76-.79,3.26,3.26,0,0,0,.69-2.15v-4.52a3.18,3.18,0,0,0-.72-2.13,2.15,2.15,0,0,0-1.73-.82m.83,7.47c0,1.37-.86,1.57-1.37,1.57h-5.73c-.51,0-1.37-.2-1.37-1.57v-4.52a1.66,1.66,0,0,1,.38-1.11,1.24,1.24,0,0,1,1-.47h5.73a1.26,1.26,0,0,1,1,.45,1.73,1.73,0,0,1,.37,1.13Z" transform="translate(-152.3 -383.17)"/><path class="cls-2" d="M393.23,454a3.15,3.15,0,0,0,.74-2.1,3.11,3.11,0,0,0-.74-2.09,2.13,2.13,0,0,0-1.72-.86h-9.24v10.41h1.61v-4.51h4.54l3.85,4.51h2l-3.85-4.51h1.09a2.18,2.18,0,0,0,1.73-.85m-9.35-.52v-3.16H391a1.28,1.28,0,0,1,1,.48,1.66,1.66,0,0,1,.39,1.1A1.65,1.65,0,0,1,392,453a1.28,1.28,0,0,1-1,.48Z" transform="translate(-152.3 -383.17)"/><polygon class="cls-2" points="128.01 67.18 128.01 65.81 116.74 65.81 116.74 76.22 128.01 76.22 128.01 74.84 118.36 74.84 118.36 71.7 125.67 71.7 126.4 70.33 118.36 70.33 118.36 67.18 128.01 67.18"/><polygon class="cls-2" points="225.85 67.18 225.85 65.81 214.57 65.81 214.57 76.22 225.85 76.22 225.85 74.84 216.19 74.84 216.19 71.7 223.5 71.7 224.23 70.33 216.19 70.33 216.19 67.18 225.85 67.18"/><rect class="cls-2" x="132.48" y="65.81" width="1.62" height="10.41"/><rect class="cls-2" x="260.27" y="65.81" width="1.62" height="10.41"/><rect class="cls-2" x="195.07" y="65.81" width="1.62" height="10.41"/><polygon class="cls-2" points="178.91 65.81 178.91 76.22 180.53 76.22 180.53 67.56 188.52 76.22 190.62 76.22 190.62 65.81 189 65.81 189 74.48 181.02 65.81 178.91 65.81"/><path class="cls-2" d="M406.31,453.51H400a1.24,1.24,0,0,1-1-.48,1.71,1.71,0,0,1-.38-1.1,1.66,1.66,0,0,1,.38-1.09,1.23,1.23,0,0,1,1-.49h8.32V449h-8.86a2.13,2.13,0,0,0-1.71.86,3.15,3.15,0,0,0-.73,2.09,3.19,3.19,0,0,0,.73,2.1,2.15,2.15,0,0,0,1.71.85h6.28a1.24,1.24,0,0,1,1,.48,1.75,1.75,0,0,1,0,2.18,1.24,1.24,0,0,1-1,.48h-8.32v1.37h8.86a2.15,2.15,0,0,0,1.71-.85,3.37,3.37,0,0,0,0-4.19,2.14,2.14,0,0,0-1.71-.84" transform="translate(-152.3 -383.17)"/><polygon class="cls-2" points="270.2 76.22 271.82 76.22 271.82 67.18 276.87 67.18 276.87 65.81 265.16 65.81 265.16 67.18 270.2 67.18 270.2 76.22"/><path class="cls-2" d="M318.38,458a1.23,1.23,0,0,1-1-.46,1.68,1.68,0,0,1-.38-1.11V449h-1.62v7.47a3.17,3.17,0,0,0,.72,2.1,2.17,2.17,0,0,0,1.73.84h6.81a2.15,2.15,0,0,0,1.74-.81,3.18,3.18,0,0,0,.7-2.13V449h-1.62v7.47a1.63,1.63,0,0,1-.36,1.13,1.25,1.25,0,0,1-1,.44Z" transform="translate(-152.3 -383.17)"/><polygon class="cls-2" points="201.71 65.81 199.91 65.81 204.69 76.22 206.35 76.22 211.12 65.81 209.31 65.81 205.51 73.95 201.71 65.81"/><polygon class="cls-2" points="280.81 65.81 279.03 65.81 283.61 71.82 283.61 76.22 285.23 76.22 285.23 71.83 289.8 65.81 288.01 65.81 284.41 70.29 280.81 65.81"/><path class="cls-2" d="M334.15,392.21H376l4.84-9H328.24a6.84,6.84,0,0,0-7,7v46.46h10.27V414.47h32.6l4.85-9H331.51V394.86a2.65,2.65,0,0,1,2.64-2.65" transform="translate(-152.3 -383.17)"/></svg>